<?xml version="1.0" encoding="UTF-8" standalone="no"?>
<!DOCTYPE svg PUBLIC "-//W3C//DTD SVG 1.1//EN" "http://www.w3.org/Graphics/SVG/1.1/DTD/svg11.dtd">
<svg width="100%" height="100%" viewBox="0 0 154 125" version="1.1" xmlns="http://www.w3.org/2000/svg" xmlns:xlink="http://www.w3.org/1999/xlink" xml:space="preserve" xmlns:serif="http://www.serif.com/" style="fill-rule:evenodd;clip-rule:evenodd;stroke-linejoin:round;stroke-miterlimit:2;">
    <g transform="matrix(1,0,0,1,-47274.1,-13521.7)">
        <g transform="matrix(1,0,0,1,47210.8,13483.5)">
            <g transform="matrix(0.116268,0,0,0.116268,-1563.22,379.232)">
                <path d="M14404.9,-2483.47C14365.6,-2503.78 14325.6,-2518.68 14287,-2529.48C14153.5,-2566.88 14037.4,-2554.05 14024.3,-2552.15L13989,-2546.7L13991.3,-2511.01C13998,-2404.91 14019.6,-2187.58 14159.5,-2034.09C14252.8,-1931.71 14398.1,-1856.1 14626.5,-1861.14C14872.8,-1856.6 15030.7,-1917.6 15131.8,-2015.17C15260.6,-2139.58 15298.4,-2326.15 15304.7,-2524.9L15306,-2564.67L15266.2,-2564.46C15178.5,-2563.01 15097.7,-2555.74 15024,-2536.16C14977,-2523.65 14932.7,-2506.65 14891.2,-2484.11L14891,-2484.01C14858.4,-2681.52 14739.5,-2834.38 14676.9,-2903.09L14649.7,-2932.53L14621.8,-2903.76C14501.9,-2780.17 14427.2,-2637.13 14404.9,-2483.47ZM14630.6,-1936.16C14847.9,-1933.84 14988.1,-1984.69 15077.5,-2071.25C15183.7,-2174.08 15217.1,-2325.12 15226.3,-2487.51C15160.2,-2485.98 15098.6,-2479.5 15040.9,-2466.82C14966.9,-2450.57 14899.6,-2423.84 14837.7,-2380.03C14791.7,-2347.47 14748.6,-2306.49 14707.6,-2254.33C14660.1,-2193.87 14615.2,-2120.09 14573.2,-2028.17C14590,-1997.58 14609.2,-1966.88 14630.6,-1936.16ZM14398.3,-2411.05C14354.8,-2432.86 14310.5,-2447.55 14268.3,-2457.65C14187.2,-2477.12 14114.1,-2478.91 14072.1,-2477.49C14081.1,-2374.43 14107.5,-2208.4 14217.6,-2086.82C14286.3,-2010.99 14387.9,-1953.5 14538.3,-1939.41C14437.8,-2098.39 14393.6,-2256.61 14398.1,-2406.17C14398.2,-2407.6 14398.2,-2409.02 14398.3,-2410.46L14398.3,-2411.05ZM14825.7,-2442.05C14818,-2496.28 14803.7,-2547.01 14785.3,-2593.43C14746.7,-2690.9 14691.3,-2769.47 14648.4,-2820.8C14540.2,-2697.79 14479.2,-2555.75 14474.5,-2403.83C14470.8,-2283.95 14502,-2158.19 14571.6,-2030.93C14601.6,-2128.71 14636.2,-2209.23 14677,-2275.64C14714.4,-2336.68 14756.9,-2385.32 14803.5,-2424.42C14810.8,-2430.53 14818.2,-2436.41 14825.7,-2442.05Z" style="fill:white;"/>
            </g>
        </g>
    </g>
</svg>
