<?xml version="1.0" encoding="UTF-8" standalone="no"?>
<!DOCTYPE svg PUBLIC "-//W3C//DTD SVG 1.1//EN" "http://www.w3.org/Graphics/SVG/1.1/DTD/svg11.dtd">
<svg width="100%" height="100%" viewBox="0 0 105 105" version="1.1" xmlns="http://www.w3.org/2000/svg" xmlns:xlink="http://www.w3.org/1999/xlink" xml:space="preserve" xmlns:serif="http://www.serif.com/" style="fill-rule:evenodd;clip-rule:evenodd;stroke-linejoin:round;stroke-miterlimit:2;">
    <g transform="matrix(1,0,0,1,-48170.8,-15762.5)">
        <g transform="matrix(1,0,0,1,47210.8,13483.5)">
            <g transform="matrix(0.875,0,0,0.875,-21526.1,-15303.3)">
                <path d="M25758.4,20094.1C25791.5,20094.1 25818.4,20121 25818.4,20154.1C25818.4,20187.2 25791.5,20214.1 25758.4,20214.1C25725.3,20214.1 25698.4,20187.2 25698.4,20154.1C25698.4,20121 25725.3,20094.1 25758.4,20094.1ZM25728.1,20190.2C25727.1,20189 25726.6,20187.5 25726.8,20185.9C25727.7,20179.5 25733.1,20172.2 25739.3,20172.2L25776.2,20172.2C25784.2,20172.2 25789.2,20178.3 25790,20185.7C25790.1,20187.3 25789.5,20189 25788.3,20190.1C25784.5,20193.6 25774.5,20201.1 25758.4,20201.1C25740.4,20201.1 25731.4,20193.8 25728.1,20190.2ZM25758.4,20129.6C25768.3,20129.6 25776.4,20137.7 25776.4,20147.6C25776.4,20157.6 25768.3,20165.6 25758.4,20165.6C25748.5,20165.6 25740.4,20157.6 25740.4,20147.6C25740.4,20137.7 25748.5,20129.6 25758.4,20129.6Z" style="fill:white;"/>
            </g>
        </g>
    </g>
</svg>
