<?xml version="1.0" encoding="UTF-8" standalone="no"?>
<!DOCTYPE svg PUBLIC "-//W3C//DTD SVG 1.1//EN" "http://www.w3.org/Graphics/SVG/1.1/DTD/svg11.dtd">
<svg width="100%" height="100%" viewBox="0 0 85 97" version="1.1" xmlns="http://www.w3.org/2000/svg" xmlns:xlink="http://www.w3.org/1999/xlink" xml:space="preserve" xmlns:serif="http://www.serif.com/" style="fill-rule:evenodd;clip-rule:evenodd;stroke-linejoin:round;stroke-miterlimit:2;">
    <g transform="matrix(1,0,0,1,-47506,-15766.8)">
        <g transform="matrix(1,0,0,1,47210.8,13483.5)">
            <g transform="matrix(0.263566,0,0,0.263566,-6366.04,-2890.01)">
                <path d="M25355.2,19628.2C25355.2,19628.2 25402.3,19628.2 25402.3,19628.2L25402.3,19636.8L25402.3,19636.8C25402.3,19659.2 25402.2,19720.2 25402.2,19745.8C25402.2,19748.2 25403.7,19750.4 25405.9,19751.4C25408.2,19752.3 25410.8,19751.8 25412.5,19750.1C25420.1,19742.5 25430,19732.5 25435.6,19727C25437.9,19724.7 25441.6,19724.7 25443.9,19726.9C25450.1,19732.9 25461.6,19744.1 25470,19752.3C25471.8,19754 25474.4,19754.5 25476.6,19753.6C25478.8,19752.6 25480.3,19750.5 25480.3,19748L25481,19628.2L25481,19628.2C25481,19628.2 25500,19628.2 25500,19628.2C25525,19628.2 25549.1,19638.2 25566.8,19655.9C25584.6,19673.7 25594.5,19697.7 25594.5,19722.8C25594.5,19777.1 25594.5,19845 25594.5,19899.3C25594.5,19924.4 25584.6,19948.5 25566.8,19966.2C25549.1,19983.9 25525,19993.9 25500,19993.9C25427.5,19993.9 25333.3,19993.9 25293.1,19993.9C25287.9,19993.9 25282.9,19991.8 25279.3,19988.2C25275.6,19984.5 25273.5,19979.5 25273.5,19974.3L25273.5,19647.8C25273.5,19642.6 25275.6,19637.7 25279.3,19634C25282.9,19630.3 25287.9,19628.2 25293.1,19628.2L25322.2,19628.2L25322.2,19636.8L25322.1,19980.8L25355.1,19980.8L25355.2,19628.2L25355.2,19628.2Z" style="fill:rgb(238,238,238);"/>
            </g>
        </g>
    </g>
</svg>
