<?xml version="1.0" encoding="UTF-8" standalone="no"?>
<!DOCTYPE svg PUBLIC "-//W3C//DTD SVG 1.1//EN" "http://www.w3.org/Graphics/SVG/1.1/DTD/svg11.dtd">
<svg width="100%" height="100%" viewBox="0 0 90 79" version="1.1" xmlns="http://www.w3.org/2000/svg" xmlns:xlink="http://www.w3.org/1999/xlink" xml:space="preserve" xmlns:serif="http://www.serif.com/" style="fill-rule:evenodd;clip-rule:evenodd;stroke-linejoin:round;stroke-miterlimit:2;">
    <g transform="matrix(1,0,0,1,-47953.8,-15775.8)">
        <g transform="matrix(1,0,0,1,47210.8,13483.5)">
            <g transform="matrix(0.860727,0,0,0.860727,-21220.3,-15022)">
                <path d="M25517,20135.1C25517,20124.5 25525.6,20115.9 25536.2,20115.9L25601.4,20115.9C25612,20115.9 25620.6,20124.5 25620.6,20135.1L25620.6,20163.8C25620.6,20174.3 25612,20182.9 25601.4,20182.9C25601.4,20182.9 25577.6,20182.9 25568.7,20182.9C25566.5,20182.9 25564.4,20183.8 25562.9,20185.3C25558.2,20189.8 25547.7,20200 25541.4,20206.1C25540.5,20207 25539.2,20207.2 25538.1,20206.7C25536.9,20206.2 25536.2,20205.1 25536.2,20203.9C25536.2,20197.9 25536.2,20189.7 25536.2,20185.5C25536.2,20184.1 25535.1,20182.9 25533.7,20182.8C25524.3,20181.6 25517,20173.5 25517,20163.8L25517,20135.1ZM25541.4,20175.4L25567.7,20175.4C25570.8,20175.4 25573.3,20172.9 25573.3,20169.9C25573.3,20166.8 25570.8,20164.3 25567.7,20164.3L25541.4,20164.3C25538.3,20164.3 25535.8,20166.8 25535.8,20169.9C25535.8,20172.9 25538.3,20175.4 25541.4,20175.4ZM25547.6,20145L25540.3,20145C25537.2,20145 25534.7,20147.5 25534.7,20150.6C25534.7,20153.7 25537.2,20156.2 25540.3,20156.2L25547.6,20156.2C25550.6,20156.2 25553.1,20153.7 25553.1,20150.6C25553.1,20147.5 25550.6,20145 25547.6,20145ZM25596.3,20145L25562.9,20145C25559.9,20145 25557.4,20147.5 25557.4,20150.6C25557.4,20153.7 25559.9,20156.2 25562.9,20156.2L25596.3,20156.2C25599.4,20156.2 25601.9,20153.7 25601.9,20150.6C25601.9,20147.5 25599.4,20145 25596.3,20145ZM25541.4,20138.2L25574.7,20138.2L25574.8,20138.2C25577.8,20138.1 25580.3,20135.7 25580.3,20132.6C25580.3,20129.5 25577.8,20127 25574.7,20127L25541.4,20127C25538.3,20127 25535.8,20129.5 25535.8,20132.6C25535.8,20135.7 25538.3,20138.2 25541.4,20138.2ZM25590.1,20138.2L25597.4,20138.2C25600.4,20138.1 25602.9,20135.7 25602.9,20132.6C25602.9,20129.5 25600.4,20127 25597.4,20127L25590.1,20127C25587,20127 25584.5,20129.5 25584.5,20132.6C25584.5,20135.7 25587,20138.2 25590.1,20138.2Z" style="fill:white;"/>
            </g>
        </g>
    </g>
</svg>
