<?xml version="1.0" encoding="UTF-8" standalone="no"?>
<!DOCTYPE svg PUBLIC "-//W3C//DTD SVG 1.1//EN" "http://www.w3.org/Graphics/SVG/1.1/DTD/svg11.dtd">
<svg width="100%" height="100%" viewBox="0 0 80 68" version="1.1" xmlns="http://www.w3.org/2000/svg" xmlns:xlink="http://www.w3.org/1999/xlink" xml:space="preserve" xmlns:serif="http://www.serif.com/" style="fill-rule:evenodd;clip-rule:evenodd;stroke-linecap:round;stroke-linejoin:round;stroke-miterlimit:1.5;">
    <g transform="matrix(1,0,0,1,-47758.9,-14462.8)">
        <g transform="matrix(1,0,0,1,47210.8,13532.7)">
            <g transform="matrix(0.309471,0,0,0.309471,-7308.58,-4863.62)">
                <path d="M25426.4,18928.9C25441.6,18920.9 25495,18883.7 25495,18883.7L25498.3,18872.1L25527.4,18852.8L25543.4,18873.8L25549.6,18874.4C25549.6,18874.4 25544.5,18879.4 25543.6,18882.7C25540.4,18894.9 25552,18905.3 25560.3,18902.5C25574.9,18897.5 25618.6,18867.9 25632.7,18856.5C25643.5,18847.8 25632.8,18833.7 25627.4,18830.5C25619.9,18826.1 25615.3,18831.4 25615.3,18831.4L25615.6,18824.3L25570.8,18758.4L25565.1,18757.8L25570.5,18750.8C25577.6,18740.4 25561.5,18724.4 25552.8,18730.5L25481,18777.3C25469.4,18785.4 25481.7,18807.2 25494.3,18801.5L25501.2,18799.9L25498.1,18806.2L25513.2,18830.5L25484.4,18849.9L25468.8,18849C25468.8,18849 25418.1,18880.5 25403.5,18892.8C25396,18899.2 25391.7,18909 25398.1,18921.9C25401.4,18928.6 25414.1,18935.4 25426.4,18928.9Z" style="fill:none;stroke:white;stroke-width:15.51px;"/>
            </g>
        </g>
    </g>
</svg>
