<?xml version="1.0" encoding="UTF-8" standalone="no"?>
<!DOCTYPE svg PUBLIC "-//W3C//DTD SVG 1.1//EN" "http://www.w3.org/Graphics/SVG/1.1/DTD/svg11.dtd">
<svg width="100%" height="100%" viewBox="0 0 57 80" version="1.1" xmlns="http://www.w3.org/2000/svg" xmlns:xlink="http://www.w3.org/1999/xlink" xml:space="preserve" xmlns:serif="http://www.serif.com/" style="fill-rule:evenodd;clip-rule:evenodd;stroke-linecap:round;stroke-linejoin:round;stroke-miterlimit:1.5;">
    <g transform="matrix(1,0,0,1,-47469.1,-14456.6)">
        <g transform="matrix(1,0,0,1,47210.8,13532.7)">
            <g transform="matrix(0.478593,0,0,0.478593,-13218.6,-8161.42)">
                <path d="M28164.2,19005C28164.2,19000.6 28165.9,18996.4 28169.1,18993.3C28172.2,18990.2 28176.4,18988.4 28180.8,18988.4C28200.9,18988.4 28234.7,18988.4 28254.9,18988.4C28259.3,18988.4 28263.5,18990.2 28266.6,18993.3C28269.7,18996.4 28271.5,19000.6 28271.5,19005C28271.5,19034.9 28271.5,19098.3 28271.5,19135.3C28271.5,19139.4 28268.8,19143.1 28264.9,19144.5C28261,19145.8 28256.6,19144.5 28254.1,19141.2C28245.6,19130.2 28235.7,19117.3 28228.4,19107.9C28225.9,19104.6 28222.1,19102.7 28218,19102.7C28213.9,19102.7 28210,19104.6 28207.5,19107.8C28200.2,19117.3 28190.1,19130.3 28181.5,19141.4C28179,19144.7 28174.7,19146 28170.7,19144.6C28166.8,19143.3 28164.2,19139.6 28164.2,19135.5C28164.2,19098.5 28164.2,19035 28164.2,19005Z" style="fill:none;stroke:white;stroke-width:10.03px;"/>
            </g>
        </g>
    </g>
</svg>
