<?xml version="1.0" encoding="UTF-8" standalone="no"?>
<!DOCTYPE svg PUBLIC "-//W3C//DTD SVG 1.1//EN" "http://www.w3.org/Graphics/SVG/1.1/DTD/svg11.dtd">
<svg width="100%" height="100%" viewBox="0 0 66 56" version="1.1" xmlns="http://www.w3.org/2000/svg" xmlns:xlink="http://www.w3.org/1999/xlink" xml:space="preserve" xmlns:serif="http://www.serif.com/" style="fill-rule:evenodd;clip-rule:evenodd;stroke-linecap:round;stroke-linejoin:round;stroke-miterlimit:1.5;">
    <g transform="matrix(1,0,0,1,-47313.3,-14461.9)">
        <g transform="matrix(1,0,0,1,47210.8,13532.7)">
            <g transform="matrix(0.151733,0,0,0.177789,-4185,-2380.11)">
                <path d="M28470.2,18656.8C28471.1,18657.6 28472.3,18658.1 28473.6,18658.1C28474.8,18658.1 28476,18657.6 28476.9,18656.8C28520.8,18615.8 28603.4,18616.5 28645.3,18646.3C28688.2,18676.9 28688.2,18738.1 28645.3,18799.3C28622.2,18834.5 28571.4,18873.2 28520,18903.1C28492,18919.5 28455.1,18919.5 28427.1,18903.1C28375.7,18873.2 28324.9,18834.5 28301.8,18799.3C28258.9,18738.1 28258.9,18676.9 28301.8,18646.3C28343.7,18616.5 28426.3,18615.8 28470.2,18656.8Z" style="fill:none;stroke:white;stroke-width:23.96px;"/>
            </g>
        </g>
    </g>
</svg>
