<?xml version="1.0" encoding="UTF-8" standalone="no"?>
<!DOCTYPE svg PUBLIC "-//W3C//DTD SVG 1.1//EN" "http://www.w3.org/Graphics/SVG/1.1/DTD/svg11.dtd">
<svg width="100%" height="100%" viewBox="0 0 75 60" version="1.1" xmlns="http://www.w3.org/2000/svg" xmlns:xlink="http://www.w3.org/1999/xlink" xml:space="preserve" xmlns:serif="http://www.serif.com/" style="fill-rule:evenodd;clip-rule:evenodd;stroke-linecap:round;stroke-linejoin:round;stroke-miterlimit:1.5;">
    <g transform="matrix(1,0,0,1,-47610.9,-14466.6)">
        <g transform="matrix(1,0,0,1,47210.8,13532.7)">
            <g transform="matrix(0.186092,0,0,0.186092,-4530.32,-2507.55)">
                <path d="M26524.4,18797.8C26522.1,18801.6 26517.4,18803.2 26513.2,18801.7C26509.1,18800.2 26506.5,18796 26507,18791.6C26524.1,18653.4 26583.7,18573.7 26700.8,18573.1C26700.8,18573.1 26701.2,18532.3 26701.4,18511.7C26701.5,18509.5 26702.7,18507.5 26704.7,18506.5C26706.7,18505.4 26709.1,18505.6 26710.9,18506.9C26743.9,18530.4 26854,18608.9 26878.7,18626.6C26879.9,18627.4 26880.6,18628.7 26880.6,18630.1C26880.6,18631.6 26879.9,18632.9 26878.8,18633.8C26854.3,18652.3 26743.9,18736 26710.5,18761.3C26708.6,18762.7 26706.2,18762.9 26704.2,18761.9C26702.1,18760.9 26700.8,18758.8 26700.8,18756.5C26700.8,18733.6 26700.8,18686.1 26700.8,18686.1C26614.6,18698.6 26560.2,18739.9 26524.4,18797.8Z" style="fill:none;stroke:white;stroke-width:25.82px;"/>
            </g>
        </g>
    </g>
</svg>
