<?xml version="1.0" encoding="UTF-8" standalone="no"?>
<!DOCTYPE svg PUBLIC "-//W3C//DTD SVG 1.1//EN" "http://www.w3.org/Graphics/SVG/1.1/DTD/svg11.dtd">
<svg width="100%" height="100%" viewBox="0 0 111 80" version="1.1" xmlns="http://www.w3.org/2000/svg" xmlns:xlink="http://www.w3.org/1999/xlink" xml:space="preserve" xmlns:serif="http://www.serif.com/" style="fill-rule:evenodd;clip-rule:evenodd;stroke-linejoin:round;stroke-miterlimit:2;">
    <g transform="matrix(1,0,0,1,-48185.1,-13544.2)">
        <g transform="matrix(1,0,0,1,47210.8,13483.5)">
            <g transform="matrix(-3.06329,0,0,3.06329,1770.73,-579.482)">
                <path d="M233,211.75C233,210.784 233.779,210 234.751,210L258.249,210C259.216,210 260,210.777 260,211.75C260,212.717 259.221,213.5 258.249,213.5L234.751,213.5C233.784,213.5 233,212.723 233,211.75ZM226.5,214C225.119,214 224,212.881 224,211.5C224,210.119 225.119,209 226.5,209C227.881,209 229,210.119 229,211.5C229,212.881 227.881,214 226.5,214ZM226.5,225C225.119,225 224,223.881 224,222.5C224,221.119 225.119,220 226.5,220C227.881,220 229,221.119 229,222.5C229,223.881 227.881,225 226.5,225ZM226.5,235C225.119,235 224,233.881 224,232.5C224,231.119 225.119,230 226.5,230C227.881,230 229,231.119 229,232.5C229,233.881 227.881,235 226.5,235ZM233,222.25C233,221.284 233.779,220.5 234.751,220.5L250.978,220.5C251.945,220.5 252.729,221.277 252.729,222.25C252.729,223.217 251.95,224 250.978,224L234.751,224C233.784,224 233,223.223 233,222.25ZM233,232.75C233,231.784 233.779,231 234.751,231L242.899,231C243.866,231 244.649,231.777 244.649,232.75C244.649,233.717 243.871,234.5 242.899,234.5L234.751,234.5C233.784,234.5 233,233.723 233,232.75Z" style="fill:white;"/>
            </g>
        </g>
    </g>
</svg>
